<?xml version="1.0" encoding="utf-8"?>
<!-- Generator: Adobe Illustrator 21.1.0, SVG Export Plug-In . SVG Version: 6.00 Build 0)  -->
<svg version="1.1" id="Calque_1" xmlns="http://www.w3.org/2000/svg" xmlns:xlink="http://www.w3.org/1999/xlink" x="0px" y="0px"
	 viewBox="0 0 432 432" style="enable-background:new 0 0 432 432;" xml:space="preserve">
<style type="text/css">
	.st0{fill:#BE1622;}
	.st1{fill:#C69C6C;}
	.st2{fill:#F39200;}
	.st3{fill:#F9B03D;}
	.st4{fill:#5BA7AD;}
	.st5{fill:#3F7579;}
	.st6{fill:#1B1B1B;}
	.st7{fill:#FFFFFF;}
	.st8{fill:#D8B6C4;}
	.st9{fill:#765844;}
	.st10{fill:#E9B2C5;}
	.st11{fill:#C7B29A;}
	.st12{fill:#EDBD7D;}
	.st13{fill:#1D71B8;}
	.st14{fill:#95C11F;}
	.st15{fill:#E94E1B;}
	.st16{fill:#575756;}
	.st17{fill:#844C16;}
	.st18{fill:#E50071;}
	.st19{fill:#AF175D;}
	.st20{fill:#E4051E;}
	.st21{fill:#13110C;}
	.st22{fill:#891A2C;}
	.st23{fill:#28295F;}
	.st24{fill:#CECFBC;}
	.st25{fill:#981F24;}
	.st26{fill:#020203;}
	.st27{fill:#BC2333;}
	.st28{fill:#AD1917;}
	.st29{fill:#04683B;}
	.st30{fill:#049348;}
	.st31{fill:#2D3D8D;}
	.st32{fill:#F39233;}
	.st33{fill:#EB5C35;}
	.st34{fill:#AA1917;}
	.st35{fill:#55514F;}
	.st36{fill:#20376D;}
	.st37{fill:#B3BBC5;}
	.st38{fill:#BAC6BC;}
	.st39{fill:#B4BA8C;}
	.st40{fill:#746458;}
	.st41{fill:#343434;}
	.st42{fill:#CEC3BC;}
	.st43{fill:#FBBA0E;}
	.st44{fill:#FED98D;}
	.st45{fill:#676767;}
	.st46{fill:#8DBE22;}
	.st47{fill:#D0E1A4;}
	.st48{fill:#EFE8E4;}
	.st49{fill:#754695;}
	.st50{fill:#A78BC0;}
	.st51{fill:#8EC045;}
	.st52{fill:#0D71B9;}
	.st53{fill:#EAC686;}
	.st54{fill:#D24063;}
	.st55{fill:#E2A11A;}
	.st56{fill:#E9BD71;}
	.st57{fill:#E8423E;}
	.st58{fill:#F8AE4C;}
	.st59{fill:#00A19A;}
	.st60{fill:#2578B9;}
	.st61{fill:#A29F9D;}
	.st62{fill:#D2B89A;}
	.st63{fill:#E6C2A9;}
	.st64{fill:#6E3B11;}
	.st65{fill:#9B6228;}
	.st66{fill:#C9A1CB;}
	.st67{fill:#F8AB00;}
	.st68{fill:#BEBBBB;}
	.st69{fill:#066938;}
	.st70{fill:#36A36A;}
	.st71{fill:#4F702A;}
	.st72{fill:#A4191E;}
	.st73{fill:#3AAA35;}
	.st74{fill:#D01419;}
	.st75{fill:#CA1527;}
	.st76{fill:#684A40;}
	.st77{fill:#9A7B65;}
	.st78{fill:#FBB700;}
	.st79{fill:#82BB26;}
	.st80{fill:#00A8E4;}
	.st81{fill:#CEA57B;}
	.st82{fill:#57B031;}
	.st83{fill:#E5251F;}
	.st84{fill:#EFDD37;}
	.st85{fill:#59C4E9;}
	.st86{fill:#F08017;}
	.st87{fill:#974393;}
	.st88{fill:#F9EA31;}
	.st89{fill:#C1292E;}
	.st90{fill:#F2D77E;}
	.st91{fill:#E6332A;}
	.st92{fill:#29235C;}
	.st93{fill:#3C3C3B;}
	.st94{fill:#2FAC66;}
	.st95{fill:#2D2E83;}
	.st96{fill:#645B51;}
	.st97{fill:#36A9E1;}
	.st98{fill:#312783;}
	.st99{fill:#2E4959;}
	.st100{fill:#5F8699;}
	.st101{fill:#172B35;}
	.st102{fill:#C3D5E4;}
	.st103{fill:#7B9135;}
	.st104{fill:#E59546;}
	.st105{fill:#B2C65F;}
	.st106{fill:#85BBB7;}
	.st107{fill:#F39323;}
	.st108{fill:#FFFFFE;}
	.st109{fill:#EFD2AC;}
	.st110{fill:#C0E0EF;}
	.st111{fill:#EFDAEC;}
	.st112{fill:#63B8A4;}
	.st113{fill:#BDCCD4;}
	.st114{fill:#8C633A;}
	.st115{fill:#CA9E67;}
	.st116{fill:#7D4E24;}
	.st117{fill:#B8B569;}
	.st118{fill:#E8C515;}
	.st119{fill:#A5A258;}
	.st120{fill:#AA884D;}
	.st121{fill:#9E994B;}
	.st122{fill:#D1A479;}
	.st123{fill:#936037;}
	.st124{fill:#FAFAFA;}
	.st125{fill:#98CDC5;}
	.st126{fill:#E1EBE8;}
	.st127{fill:#DDCE9E;}
	.st128{fill:#A67D52;}
	.st129{fill:#437156;}
	.st130{fill:#4F8366;}
	.st131{fill:#8F6947;}
	.st132{fill:#856143;}
	.st133{fill:#171512;}
	.st134{fill:#AA191B;}
	.st135{fill:#1C1A38;}
	.st136{fill:#8E8C38;}
	.st137{fill:#CAC955;}
	.st138{fill:#6C6A29;}
	.st139{fill:#D8D564;}
	.st140{fill:#5CABD5;}
	.st141{fill:#70B4D9;}
	.st142{fill:#9A9999;}
	.st143{fill:#B4B4B4;}
	.st144{fill:#ABAA3D;}
	.st145{fill:#D7DB2F;}
	.st146{fill:#B8CED8;}
	.st147{fill:#05AB9E;}
	.st148{fill:#DAB828;}
	.st149{fill:#EB7533;}
	.st150{fill:#EDE4CA;}
	.st151{fill:#575452;}
	.st152{fill:#F9F6F4;}
	.st153{fill:#94B2AA;}
	.st154{fill:#D8D7C4;}
	.st155{fill:#BAD68E;}
	.st156{fill:#F0E6E1;}
	.st157{fill:#BFD786;}
	.st158{fill:#E9E499;}
	.st159{fill:#A2D3C2;}
	.st160{fill:#EB7976;}
	.st161{fill:#EEF4E7;}
	.st162{fill:#EADA7F;}
	.st163{fill:#B2D9C2;}
	.st164{fill:#43B284;}
	.st165{fill:#9AC028;}
	.st166{fill:#D8AD80;}
	.st167{fill:#F2F2F2;}
	.st168{fill:#767574;}
	.st169{fill:#CDC8C6;}
	.st170{fill:#634E42;}
	.st171{fill:#E4E0DF;}
	.st172{fill:#D98F53;}
	.st173{fill:#E2CAB5;}
	.st174{fill:#B61824;}
	.st175{fill:#E2BAA0;}
	.st176{fill:#CF455A;}
	.st177{fill:#648546;}
	.st178{fill:#4F6834;}
	.st179{fill:#91BB64;}
	.st180{fill:#D1CE4D;}
	.st181{fill:#CFCE67;}
	.st182{fill:#E5E4BD;}
	.st183{fill:#A69F28;}
	.st184{fill:#E3BF32;}
	.st185{fill:#E68024;}
	.st186{fill:#D27444;}
	.st187{fill:#D1B05A;}
	.st188{fill:#F4E3BD;}
	.st189{fill:#668852;}
	.st190{fill:#A3C18F;}
	.st191{fill:#D8B41E;}
	.st192{fill:#E2DBBA;}
	.st193{fill:#603914;}
	.st194{fill:#CF1042;}
	.st195{fill:#2F8A7F;}
	.st196{fill:#D19A69;}
	.st197{fill:#E9C3A4;}
	.st198{fill:#F2BF21;}
	.st199{fill:#CFD3D1;}
	.st200{fill:#E9F2ED;}
	.st201{fill:#4E4D4D;}
	.st202{fill:#C4E2D0;}
	.st203{fill:#F3F3F3;}
	.st204{fill:#F8FAF9;}
	.st205{fill:#C6B5A8;}
	.st206{fill:#F2F1E7;}
	.st207{fill:#CEC87B;}
	.st208{fill:#C7E4E5;}
	.st209{fill:#D4894A;}
	.st210{fill:#FBFDFA;}
	.st211{fill:#B4CD5F;}
	.st212{fill:#1F1B15;}
	.st213{fill:#161210;}
	.st214{fill:#A8D1D2;}
	.st215{fill:#8E6640;}
	.st216{fill:#B22518;}
	.st217{fill:#683F1D;}
	.st218{fill:#F0F7F7;}
	.st219{fill:#CD924B;}
	.st220{fill:#CDCCCC;}
	.st221{fill:#F2D7C0;}
	.st222{fill:#B21924;}
	.st223{fill:#EDCEB1;}
	.st224{fill:#7D552C;}
	.st225{fill:#A0BC6F;}
	.st226{fill:#94AD65;}
	.st227{fill:#E7E6E6;}
	.st228{fill:#9FD6DB;}
	.st229{fill:#EACD7F;}
	.st230{fill:#E28C52;}
	.st231{fill:#141414;}
	.st232{fill:#E97E28;}
	.st233{fill:#D0C657;}
	.st234{fill:#F3BC95;}
	.st235{fill:#FBFDFC;}
	.st236{fill:#CA252F;}
	.st237{fill:#B8B6B7;}
	.st238{fill:#808181;}
	.st239{fill:#F7F5DB;}
	.st240{fill:#CA1618;}
	.st241{fill:#FDC30B;}
	.st242{fill:#5F3917;}
	.st243{fill:#FFDA36;}
	.st244{fill:#AB7049;}
	.st245{fill:#619DCF;}
	.st246{fill:#45779A;}
	.st247{fill:#68AFA1;}
	.st248{fill:#108E77;}
	.st249{fill:#A5779F;}
	.st250{fill:#008D36;}
	.st251{fill:#E83E49;}
	.st252{fill:#A12D38;}
	.st253{fill-rule:evenodd;clip-rule:evenodd;fill:#677124;}
</style>
<g>
	<g>
		<path class="st192" d="M193.7,132.2c-3.6-2.2-7.9-2.5-11.6-1.1c-7-23.8-28.9-41.2-54.9-41.2c-26.5,0-48.8,18.1-55.3,42.5
			c-27.3-7.4-20.4,43.6,1.8,34.9c8.2,21.7,29.1,37.1,53.6,37.1c25.1,0,46.5-16.2,54.2-38.8C196.6,171.7,210.7,142.6,193.7,132.2z"/>
		<g>
			<g>
				<path class="st193" d="M193.7,132.2c-3.6-2.2-7.9-2.5-11.6-1.1c-7-23.8-28.9-41.2-54.9-41.2c-26.5,0-48.8,18.1-55.3,42.5
					c-27.3-7.4-20.4,43.6,1.8,34.9c1.3,3.3,2.8,6.5,4.7,9.5c1-6.2-7.5-35.3,9-34c-3.7-27.9,27.4-37.5,38.2-19.9
					c5.4-16.8,45.5-18.3,41.6,15.3c12.1,0.7,9.1,36.8,5.2,43.7c2.6-2.6,3.8-4.1,5.2-6.9c0.9-1.7,3.1-7.1,3.9-9.3
					C196.6,171.7,210.7,142.6,193.7,132.2z"/>
			</g>
		</g>
		<g>
			<g>
				<ellipse class="st41" cx="102.4" cy="153.3" rx="2.7" ry="6.1"/>
				<ellipse class="st41" cx="153.6" cy="152.4" rx="2.7" ry="6.1"/>
				<g>
					<path class="st41" d="M117.6,171.3c1.7,0,1.7-2.6,0-2.6C116,168.7,115.9,171.3,117.6,171.3L117.6,171.3z"/>
				</g>
				<g>
					<path class="st41" d="M136,170.9c1.7,0,1.7-2.6,0-2.6C134.3,168.3,134.3,170.9,136,170.9L136,170.9z"/>
				</g>
			</g>
			<circle class="st41" cx="125.9" cy="188.5" r="4.6"/>
		</g>
	</g>
	<path class="st194" d="M138.2,203.2c-4.8-3.9-11.5-3.7-16,0.9c-47.5-43.7-61,25.9-17.9,16.1c-22.2,19.2,20.7,32,20.6,2.7
		c3.9,3.7,10.6,3.9,12.1-0.9c4.2,20.3,31.4,20.1,18.9-4.7c6.1-0.3,11.7-3.3,14.9-8.6C182.8,188.7,150.4,173.7,138.2,203.2z"/>
</g>
<g>
	<path class="st192" d="M302.2,285.7c-4.2-2.5-9.1-2.8-13.4-1.3c-8.1-27.6-33.5-47.7-63.7-47.7c-30.8,0-56.6,20.9-64.1,49.3
		c-31.7-8.6-23.7,50.5,2,40.4c9.5,25.1,33.3,28.9,61.7,28.9c29.1,0,55.1-1.9,63.2-30.9C305.5,331.4,321.9,297.7,302.2,285.7z"/>
	<g>
		<g>
			<path class="st193" d="M302.2,285.7c-4.2-2.5-9.1-2.8-13.4-1.3c-8.1-27.6-33.5-47.7-63.7-47.7c-30.8,0-56.6,20.9-64.1,49.3
				c-31.7-8.6-23.7,50.5,2,40.4c1.5,3.9,3.3,7.6,5.4,11.1c1.2-7.2-8.7-40.9,10.5-39.5c-4.3-32.3,31.8-43.5,44.2-23.1
				c6.3-19.4,52.8-21.2,48.3,17.8c14,0.8,10.6,42.7,6,50.6c3-3,4.4-4.8,6-8c1-2,3.6-8.3,4.5-10.7
				C305.5,331.4,321.9,297.7,302.2,285.7z"/>
		</g>
	</g>
	<g>
		<ellipse class="st41" cx="193.7" cy="310.3" rx="2.9" ry="3.4"/>
		<ellipse class="st41" cx="247.9" cy="305.5" rx="2.9" ry="3.4"/>
		<path class="st41" d="M209.8,326.6c5,6.2,19.1,6.9,23.8-0.1c1-1.6-1.5-3-2.5-1.5c-3.6,5.4-15.6,4-19.2-0.5
			C210.7,323.1,208.7,325.2,209.8,326.6L209.8,326.6z"/>
		<path class="st41" d="M217.4,316.1c1.9,0,1.9-2.9,0-2.9C215.5,313.2,215.5,316.1,217.4,316.1L217.4,316.1z"/>
		<path class="st41" d="M225.9,314.2c1.9,0,1.9-2.9,0-2.9C224,311.3,224,314.2,225.9,314.2L225.9,314.2z"/>
	</g>
</g>
<g>
	<g>
		<path class="st192" d="M370,133.2c-3.7-2.2-8.1-2.5-11.9-1.2c-7.2-24.5-29.8-42.4-56.6-42.4c-27.4,0-50.4,18.6-57,43.9
			c-28.2-7.6-21.1,44.9,1.8,35.9c8.4,22.3,30,38.2,55.2,38.2c25.9,0,47.9-16.7,55.8-39.9C373,173.9,387.6,143.9,370,133.2z"/>
	</g>
	<path class="st193" d="M370,133.2c-3.7-2.2-8.1-2.5-11.9-1.2c-4.8-16.4-16.5-29.8-31.7-36.9c0,0,0.1-0.1,0.1-0.1c2-3,4.3-5.5,7-7.8
		c0.9-0.8,0.1-2.1-0.9-2.2c-3.3-0.3-6.4,0-9.6,0.5c0.3-0.8-0.2-1.7-1.2-1.8c-5.8-0.3-11.3,0.4-16.7,2.2c2.2-2.4,4.3-4.7,6.5-7.1
		c0.7-0.8,0.3-2.3-0.9-2.2c-11.8,1-22.3,6.9-29.3,16.4c-18,6.5-32,21.6-36.9,40.3c-28.2-7.6-21.1,44.9,1.8,35.9
		c1.3,3.4,2.9,6.7,4.8,9.8c1-6.4-7.7-36.3,9.3-35.1c-3.8-28.8,28.3-38.7,39.3-20.6c5.6-17.3,46.9-18.9,42.9,15.8
		c12.5,0.7,9.4,38,5.4,45c2.7-2.7,3.9-4.3,5.4-7.2c0.9-1.8,3.2-7.4,4-9.5C373,173.9,387.6,143.9,370,133.2z"/>
	<g>
		<g>
			<ellipse class="st41" cx="280" cy="154.4" rx="4.2" ry="4.9"/>
			<ellipse class="st41" cx="321.1" cy="153.1" rx="4.4" ry="4.9"/>
		</g>
		<g>
			<path class="st41" d="M265.1,175.3c8.9,8.9,22.5,10.8,34.6,10.4c11.9-0.4,28.1-2,36.2-11.7c1.1-1.3-0.8-3.1-1.8-1.8
				c-7.7,9.1-23.2,10.6-34.4,11c-11.4,0.4-24.3-1.2-32.8-9.6C265.8,172.3,264,174.2,265.1,175.3L265.1,175.3z"/>
		</g>
		<g>
			<path class="st41" d="M297.7,172c1.7,0,1.7-2.6,0-2.6C296.1,169.4,296.1,172,297.7,172L297.7,172z"/>
		</g>
		<g>
			<path class="st41" d="M305.2,172c1.7,0,1.7-2.6,0-2.6C303.5,169.4,303.5,172,305.2,172L305.2,172z"/>
		</g>
	</g>
	<path class="st195" d="M319.7,197.8c-4.7-0.5-8.4,1.5-11.8,4.6c-0.4,0.4-1.3,0.8-1.7,1.2c-0.8-1.3-1.9-2.1-3.1-2.1
		c-1.2,0-2.2,0.8-3,2c-5.6-4-14.8-4.1-20.1-0.2c-7.5,5.4-2.9,15,5.2,16.2c4.4,0.6,10.2-1.9,14-4.2c0.2-0.1,0.6,1.6,0.8,1.4
		c0.8,1.2,1.9,2,3,2c1.6,0,2.9-1.4,3.8-3.5c4.6,3.4,11.7,3.5,16.8,0.3C331.4,210.8,328.5,198.8,319.7,197.8z"/>
</g>
</svg>
